<svg xmlns="http://www.w3.org/2000/svg" xmlns:xlink="http://www.w3.org/1999/xlink" width="168" height="65" viewBox="0 0 168 65">
  <defs>
    <polygon id="kollect-logo-sidebar-b" points="35.169 30.502 41.49 22.53 68.839 33.865 64.203 35.935"/>
    <filter id="kollect-logo-sidebar-a" width="105.9%" height="129.8%" x="-3%" y="-7.5%" filterUnits="objectBoundingBox">
      <feOffset dy="2" in="SourceAlpha" result="shadowOffsetOuter1"/>
      <feColorMatrix in="shadowOffsetOuter1" values="0 0 0 0 0.105882353   0 0 0 0 0.0274509804   0 0 0 0 0.325490196  0 0 0 0.0671988225 0"/>
    </filter>
    <linearGradient id="kollect-logo-sidebar-c" x1="73.869%" x2="0%" y1="19.472%" y2="68.172%">
      <stop offset="0%" stop-color="#642D95"/>
      <stop offset="100%" stop-color="#582D95"/>
    </linearGradient>
    <polygon id="kollect-logo-sidebar-e" points="41.49 22.53 51.568 33.57 51.568 26.707"/>
    <filter id="kollect-logo-sidebar-d" width="119.8%" height="136.2%" x="-9.9%" y="-9.1%" filterUnits="objectBoundingBox">
      <feOffset dy="2" in="SourceAlpha" result="shadowOffsetOuter1"/>
      <feColorMatrix in="shadowOffsetOuter1" values="0 0 0 0 0.105882353   0 0 0 0 0.0274509804   0 0 0 0 0.325490196  0 0 0 0.1 0"/>
    </filter>
    <polygon id="kollect-logo-sidebar-g" points="24.866 33.349 19.71 40.286 24.081 43.026"/>
    <filter id="kollect-logo-sidebar-f" width="138.8%" height="141.3%" x="-19.4%" y="-10.3%" filterUnits="objectBoundingBox">
      <feOffset dy="2" in="SourceAlpha" result="shadowOffsetOuter1"/>
      <feColorMatrix in="shadowOffsetOuter1" values="0 0 0 0 0.105882353   0 0 0 0 0.0274509804   0 0 0 0 0.325490196  0 0 0 0.1 0"/>
    </filter>
  </defs>
  <g fill="none" fill-rule="evenodd">
    <polygon fill="#9165FF" points="7.983 61.204 35.169 30.502 24.866 33.348 2.219 63.81"/>
    <polygon fill="#512486" points="35.169 30.502 14.559 53.776 51.557 33.563"/>
    <use fill="#000" filter="url(#kollect-logo-sidebar-a)" xlink:href="#kollect-logo-sidebar-b"/>
    <use fill="#9165FF" xlink:href="#kollect-logo-sidebar-b"/>
    <polygon fill="#512486" points="41.49 22.53 43.218 20.189 51.568 14.755 51.568 26.707"/>
    <polygon fill="#9165FF" points="60.518 8.789 53.333 13.545 53.333 4.663 60.518 3.479"/>
    <polygon fill="#6431A0" points="53.459 2.173 53.459 13.544 50.656 15.341 43.151 3.534"/>
    <polygon fill="url(#kollect-logo-sidebar-c)" points="60.645 3.479 60.645 5.439 58.953 3.757"/>
    <use fill="#000" filter="url(#kollect-logo-sidebar-d)" xlink:href="#kollect-logo-sidebar-e"/>
    <use fill="#7227E2" xlink:href="#kollect-logo-sidebar-e"/>
    <polygon fill="#512486" points="24.866 33.349 13.409 36.335 19.71 40.286"/>
    <use fill="#000" filter="url(#kollect-logo-sidebar-f)" xlink:href="#kollect-logo-sidebar-g"/>
    <use fill="#7227E2" xlink:href="#kollect-logo-sidebar-g"/>
    <polygon fill="#9165FF" points="43.15 3.534 37.454 10.319 37.454 20.19 43.218 20.19 50.655 15.341"/>
    <path fill="#FFF" d="M102.456,39 L96.48,39 L96.48,37.104 L98.208,37.104 L94.464,31.992 L92.064,31.992 L92.064,37.104 L93.72,37.104 L93.72,39 L87.984,39 L87.984,37.104 L89.88,37.104 L89.88,25.296 L87.984,25.296 L87.984,23.4 L93.768,23.4 L93.768,25.296 L92.064,25.296 L92.064,30.168 L94.44,30.168 L98.088,25.272 L96.384,25.272 L96.384,23.376 L102.168,23.376 L102.168,25.272 L100.392,25.272 L96.144,30.864 L100.752,37.104 L102.456,37.104 L102.456,39 Z M114.24,33.648 C114.24,35.2960082 113.732005,36.6399948 112.716,37.68 C111.699995,38.7200052 110.360008,39.24 108.696,39.24 C107.063992,39.24 105.772005,38.736005 104.82,37.728 C103.867995,36.719995 103.392,35.3920082 103.392,33.744 C103.392,32.1759922 103.847995,30.8320056 104.76,29.712 C105.672005,28.5919944 107.031991,28.032 108.84,28.032 C110.648009,28.032 111.999996,28.5879944 112.896,29.7 C113.792004,30.8120056 114.24,32.1279924 114.24,33.648 Z M112.032,33.576 C112.032,32.3919941 111.740003,31.4560034 111.156,30.768 C110.571997,30.0799966 109.784005,29.736 108.792,29.736 C107.751995,29.736 106.956003,30.0999964 106.404,30.828 C105.851997,31.5560036 105.576,32.4879943 105.576,33.624 C105.576,34.7120054 105.843997,35.6359962 106.38,36.396 C106.916003,37.1560038 107.711995,37.536 108.768,37.536 C109.808005,37.536 110.611997,37.1640037 111.18,36.42 C111.748003,35.6759963 112.032,34.7280058 112.032,33.576 Z M121.056,39 L115.488,39 L115.488,37.368 L117.216,37.368 L117.216,24.144 L115.416,24.144 L115.416,22.488 L119.328,22.488 L119.328,37.368 L121.056,37.368 L121.056,39 Z M127.584,39 L122.016,39 L122.016,37.368 L123.744,37.368 L123.744,24.144 L121.944,24.144 L121.944,22.488 L125.856,22.488 L125.856,37.368 L127.584,37.368 L127.584,39 Z M138.696,35.832 C138.583999,36.7600046 138.128004,37.5599966 137.328,38.232 C136.527996,38.9040034 135.440007,39.24 134.064,39.24 C132.511992,39.24 131.256005,38.7760046 130.296,37.848 C129.335995,36.9199954 128.856,35.5760088 128.856,33.816 C128.856,32.1519917 129.303996,30.7760054 130.2,29.688 C131.096004,28.5999946 132.335992,28.056 133.92,28.056 C135.392007,28.056 136.535996,28.5119954 137.352,29.424 C138.168004,30.3360046 138.584,31.4399935 138.6,32.736 C138.6,33.1680022 138.552,33.6239976 138.456,34.104 L131.064,34.104 C131.16,36.3760114 132.20799,37.512 134.208,37.512 C135.040004,37.512 135.667998,37.312002 136.092,36.912 C136.516002,36.511998 136.799999,36.0320028 136.944,35.472 L138.696,35.832 Z M136.416,32.688 C136.48,31.9839965 136.308002,31.3080032 135.9,30.66 C135.491998,30.0119968 134.816005,29.688 133.872,29.688 C132.991996,29.688 132.332002,29.9799971 131.892,30.564 C131.451998,31.1480029 131.184,31.8559958 131.088,32.688 L136.416,32.688 Z M149.904,35.28 C149.775999,36.2240047 149.356004,37.1199958 148.644,37.968 C147.931996,38.8160042 146.800008,39.24 145.248,39.24 C143.743992,39.24 142.532005,38.7720047 141.612,37.836 C140.691995,36.8999953 140.232,35.5600087 140.232,33.816 C140.232,32.1999919 140.687995,30.8360056 141.6,29.724 C142.512005,28.6119944 143.783992,28.056 145.416,28.056 C146.088003,28.056 146.735997,28.1359992 147.36,28.296 C147.984003,28.4560008 148.575997,28.735998 149.136,29.136 L149.568,31.92 L147.864,32.112 L147.48,30.312 C146.871997,29.9599982 146.176004,29.784 145.392,29.784 C144.383995,29.784 143.640002,30.1479964 143.16,30.876 C142.679998,31.6040036 142.44,32.5439942 142.44,33.696 C142.44,34.896006 142.695997,35.8319966 143.208,36.504 C143.720003,37.1760034 144.471995,37.512 145.464,37.512 C146.952007,37.512 147.839999,36.6480086 148.128,34.92 L149.904,35.28 Z M159.648,35.976 C159.343998,38.1520109 158.14401,39.24 156.048,39.24 C154.943994,39.24 154.084003,38.940003 153.468,38.34 C152.851997,37.739997 152.544,36.9040054 152.544,35.832 L152.544,29.88 L150.888,29.88 L150.888,28.272 L152.544,28.272 L152.544,24.888 L154.632,24.888 L154.632,28.272 L158.736,28.272 L158.736,29.88 L154.632,29.88 L154.632,35.52 C154.632,36.8000064 155.183994,37.44 156.288,37.44 C156.640002,37.44 156.991998,37.3240012 157.344,37.092 C157.696002,36.8599988 157.943999,36.3200042 158.088,35.472 L159.648,35.976 Z"/>
  </g>
</svg>
