<svg xmlns="http://www.w3.org/2000/svg" xmlns:xlink="http://www.w3.org/1999/xlink" width="265" height="245" viewBox="0 0 265 245">
  <defs>
    <polygon id="kollect-logo-masthead-b" points="131.192 112.628 156.192 81.128 264.364 125.916 246.028 134.096"/>
    <filter id="kollect-logo-masthead-a" width="106%" height="130.2%" x="-3%" y="-7.6%" filterUnits="objectBoundingBox">
      <feOffset dy="8" in="SourceAlpha" result="shadowOffsetOuter1"/>
      <feColorMatrix in="shadowOffsetOuter1" values="0 0 0 0 0.105882353   0 0 0 0 0.0274509804   0 0 0 0 0.325490196  0 0 0 0.0671988225 0"/>
    </filter>
    <polygon id="kollect-logo-masthead-d" points="231.453 26.828 203.033 45.62 203.033 10.524 231.453 5.844"/>
    <filter id="kollect-logo-masthead-c" width="128.1%" height="140.2%" x="-14.1%" y="-10.1%" filterUnits="objectBoundingBox">
      <feOffset dy="8" in="SourceAlpha" result="shadowOffsetOuter1"/>
      <feColorMatrix in="shadowOffsetOuter1" values="0 0 0 0 0.105882353   0 0 0 0 0.0274509804   0 0 0 0 0.325490196  0 0 0 0.0671988225 0"/>
    </filter>
    <linearGradient id="kollect-logo-masthead-e" x1="73.869%" x2="0%" y1="19.472%" y2="68.172%">
      <stop offset="0%" stop-color="#642D95"/>
      <stop offset="100%" stop-color="#582D95"/>
    </linearGradient>
    <polygon id="kollect-logo-masthead-g" points="156.192 81.128 196.052 124.752 196.052 97.632"/>
    <filter id="kollect-logo-masthead-f" width="120.1%" height="136.7%" y="-9.2%" filterUnits="objectBoundingBox">
      <feOffset dy="8" in="SourceAlpha" result="shadowOffsetOuter1"/>
      <feColorMatrix in="shadowOffsetOuter1" values="0 0 0 0 0.105882353   0 0 0 0 0.0274509804   0 0 0 0 0.325490196  0 0 0 0.1 0"/>
    </filter>
    <polygon id="kollect-logo-masthead-i" points="90.442 123.878 70.046 151.29 87.334 162.118"/>
    <filter id="kollect-logo-masthead-h" width="139.2%" height="141.8%" x="-19.6%" y="-10.5%" filterUnits="objectBoundingBox">
      <feOffset dy="8" in="SourceAlpha" result="shadowOffsetOuter1"/>
      <feColorMatrix in="shadowOffsetOuter1" values="0 0 0 0 0.105882353   0 0 0 0 0.0274509804   0 0 0 0 0.325490196  0 0 0 0.1 0"/>
    </filter>
    <polygon id="kollect-logo-masthead-k" points="162.758 6.062 140.23 32.874 140.23 71.878 163.026 71.878 192.442 52.718"/>
    <filter id="kollect-logo-masthead-j" width="115.3%" height="124.3%" x="-7.7%" y="-6.1%" filterUnits="objectBoundingBox">
      <feOffset dy="8" in="SourceAlpha" result="shadowOffsetOuter1"/>
      <feColorMatrix in="shadowOffsetOuter1" values="0 0 0 0 0.105882353   0 0 0 0 0.0274509804   0 0 0 0 0.325490196  0 0 0 0.0671988225 0"/>
    </filter>
  </defs>
  <g fill="none" fill-rule="evenodd">
    <polygon fill="#9165FF" points="23.664 233.953 131.192 112.629 90.44 123.877 .864 244.249"/>
    <polygon fill="#512486" points="131.192 112.628 49.676 204.6 196.011 124.724"/>
    <use fill="#000" filter="url(#kollect-logo-masthead-a)" xlink:href="#kollect-logo-masthead-b"/>
    <use fill="#9165FF" xlink:href="#kollect-logo-masthead-b"/>
    <polygon fill="#512486" points="156.192 81.128 163.028 71.876 196.052 50.404 196.052 97.632"/>
    <use fill="#000" filter="url(#kollect-logo-masthead-c)" xlink:href="#kollect-logo-masthead-d"/>
    <use fill="#9165FF" xlink:href="#kollect-logo-masthead-d"/>
    <polygon fill="#6431A0" points="203.532 .683 203.532 45.619 192.444 52.719 162.76 6.063"/>
    <polygon fill="url(#kollect-logo-masthead-e)" points="231.7 5.843 231.7 13.591 225.261 6.943"/>
    <use fill="#000" filter="url(#kollect-logo-masthead-f)" xlink:href="#kollect-logo-masthead-g"/>
    <use fill="#7227E2" xlink:href="#kollect-logo-masthead-g"/>
    <polygon fill="#512486" points="90.442 123.878 45.126 135.678 70.046 151.29"/>
    <g>
      <use fill="#000" filter="url(#kollect-logo-masthead-h)" xlink:href="#kollect-logo-masthead-i"/>
      <use fill="#7227E2" xlink:href="#kollect-logo-masthead-i"/>
    </g>
    <g>
      <use fill="#000" filter="url(#kollect-logo-masthead-j)" xlink:href="#kollect-logo-masthead-k"/>
      <use fill="#9165FF" xlink:href="#kollect-logo-masthead-k"/>
    </g>
  </g>
</svg>
