<svg xmlns="http://www.w3.org/2000/svg" width="1532" height="557" viewBox="0 0 1532 557">
  <defs>
    <linearGradient id="masthead-lines-a" x1="19.781%" x2="81.948%" y1="17.754%" y2="84.065%">
      <stop offset="0%" stop-color="#8A1DBD"/>
      <stop offset="100%" stop-color="#C883E8"/>
    </linearGradient>
    <linearGradient id="masthead-lines-b" x1="19.781%" x2="81.948%" y1="17.754%" y2="84.065%">
      <stop offset="0%" stop-color="#9C5EFF"/>
      <stop offset="91.824%" stop-color="#BB95F7"/>
      <stop offset="100%" stop-color="#BE9AF7"/>
    </linearGradient>
    <linearGradient id="masthead-lines-c" x1="19.781%" x2="81.948%" y1="17.754%" y2="84.065%">
      <stop offset="0%" stop-color="#8A1DBD"/>
      <stop offset="66.79%" stop-color="#BC6EE0"/>
      <stop offset="100%" stop-color="#C883E8" stop-opacity="0"/>
    </linearGradient>
    <linearGradient id="masthead-lines-d" x1="19.781%" x2="87.831%" y1="17.754%" y2="17.754%">
      <stop offset="0%" stop-color="#6F1DBD"/>
      <stop offset="77.64%" stop-color="#9A5FD3"/>
      <stop offset="100%" stop-color="#A772D9" stop-opacity="0"/>
    </linearGradient>
    <linearGradient id="masthead-lines-e" x1="19.781%" x2="86.633%" y1="17.754%" y2="19.374%">
      <stop offset="0%" stop-color="#6F1DBD"/>
      <stop offset="69.973%" stop-color="#9658D1"/>
      <stop offset="100%" stop-color="#A772D9" stop-opacity="0"/>
    </linearGradient>
    <linearGradient id="masthead-lines-f" x1="19.781%" x2="69.287%" y1="17.754%" y2="50%">
      <stop offset="0%" stop-color="#6F1DBD"/>
      <stop offset="100%" stop-color="#9354CF"/>
      <stop offset="100%" stop-color="#A772D9" stop-opacity="0"/>
    </linearGradient>
    <linearGradient id="masthead-lines-g" x1="34.049%" x2="75.124%" y1="0%" y2="0%">
      <stop offset="0%" stop-color="#9C5EFF"/>
      <stop offset="33.434%" stop-color="#AC7AFB"/>
      <stop offset="100%" stop-color="#BE9AF7" stop-opacity="0"/>
    </linearGradient>
    <linearGradient id="masthead-lines-h" x1="19.781%" x2="98.386%" y1="17.754%" y2="17.754%">
      <stop offset="0%" stop-color="#8A1DBD"/>
      <stop offset="18.75%" stop-color="#B360DA"/>
      <stop offset="37.504%" stop-color="#B767DD" stop-opacity=".527"/>
      <stop offset="77.985%" stop-color="#C178E4" stop-opacity="0"/>
      <stop offset="90.086%" stop-color="#C680E7" stop-opacity=".22"/>
      <stop offset="100%" stop-color="#C883E8" stop-opacity="0"/>
    </linearGradient>
    <linearGradient id="masthead-lines-i" x1="19.781%" x2="91.704%" y1="17.754%" y2="17.754%">
      <stop offset="0%" stop-color="#6F1DBD"/>
      <stop offset="19.723%" stop-color="#975AD2"/>
      <stop offset="32.4%" stop-color="#A067D6" stop-opacity="0"/>
      <stop offset="86.747%" stop-color="#A46ED8"/>
      <stop offset="100%" stop-color="#A772D9" stop-opacity="0"/>
    </linearGradient>
    <linearGradient id="masthead-lines-j" x1="19.781%" x2="94.131%" y1="17.754%" y2="17.754%">
      <stop offset="0%" stop-color="#9C5EFF"/>
      <stop offset="78.812%" stop-color="#B890F8"/>
      <stop offset="100%" stop-color="#BE9AF7" stop-opacity="0"/>
    </linearGradient>
    <linearGradient id="masthead-lines-k" x1="19.781%" x2="95.504%" y1="17.754%" y2="17.754%">
      <stop offset="0%" stop-color="#9C5EFF"/>
      <stop offset="80.676%" stop-color="#B78EF8"/>
      <stop offset="100%" stop-color="#BE9AF7" stop-opacity="0"/>
    </linearGradient>
    <linearGradient id="masthead-lines-l" x1="19.781%" x2="91.371%" y1="17.754%" y2="17.754%">
      <stop offset="0%" stop-color="#8A1DBD"/>
      <stop offset="75.771%" stop-color="#BC70E0"/>
      <stop offset="100%" stop-color="#C883E8" stop-opacity="0"/>
    </linearGradient>
    <linearGradient id="masthead-lines-m" x1="19.781%" x2="78.443%" y1="17.754%" y2="17.754%">
      <stop offset="0%" stop-color="#8A1DBD"/>
      <stop offset="75.879%" stop-color="#B96ADE"/>
      <stop offset="100%" stop-color="#C883E8" stop-opacity="0"/>
    </linearGradient>
    <linearGradient id="masthead-lines-n" x1="19.781%" x2="94.48%" y1="17.754%" y2="17.754%">
      <stop offset="0%" stop-color="#9C5EFF"/>
      <stop offset="62.221%" stop-color="#B183FA"/>
      <stop offset="100%" stop-color="#BE9AF7" stop-opacity="0"/>
    </linearGradient>
    <linearGradient id="masthead-lines-o" x1="13.008%" x2="70.86%" y1="42.249%" y2="42.249%">
      <stop offset="0%" stop-color="#6F1DBD"/>
      <stop offset="24.039%" stop-color="#9759D1"/>
      <stop offset="100%" stop-color="#A772D9" stop-opacity="0"/>
    </linearGradient>
    <linearGradient id="masthead-lines-p" x1="19.781%" x2="85.931%" y1="17.754%" y2="17.754%">
      <stop offset="0%" stop-color="#9C5EFF"/>
      <stop offset="72.284%" stop-color="#B991F8"/>
      <stop offset="100%" stop-color="#BE9AF7" stop-opacity="0"/>
    </linearGradient>
    <linearGradient id="masthead-lines-q" x1="19.781%" x2="94.206%" y1="17.754%" y2="100%">
      <stop offset="0%" stop-color="#6F1DBD"/>
      <stop offset="68.665%" stop-color="#9C61D4"/>
      <stop offset="100%" stop-color="#A772D9" stop-opacity="0"/>
    </linearGradient>
    <linearGradient id="masthead-lines-r" x1="19.781%" x2="78.085%" y1="17.754%" y2="17.754%">
      <stop offset="0%" stop-color="#8A1DBD"/>
      <stop offset="58.097%" stop-color="#BD71E1"/>
      <stop offset="100%" stop-color="#C883E8" stop-opacity=".085"/>
    </linearGradient>
    <linearGradient id="masthead-lines-s" x1="19.781%" x2="98.9%" y1="17.754%" y2="17.754%">
      <stop offset="0%" stop-color="#9C5EFF"/>
      <stop offset="78.469%" stop-color="#B890F8"/>
      <stop offset="100%" stop-color="#BE9AF7" stop-opacity="0"/>
    </linearGradient>
  </defs>
  <g fill="none" fill-rule="evenodd" opacity=".517" transform="rotate(-45 951.322 -447.407)">
    <path fill="url(#masthead-lines-a)" d="M0,550 L41,550 L41,552 L0,552 L0,550 Z M52,550 L69,550 L69,552 L52,552 L52,550 Z M75,550 L85,550 L85,552 L75,552 L75,550 Z M256,550 L346,550 L346,552 L256,552 L256,550 Z M91,550 L206,550 L206,552 L91,552 L91,550 Z M217,550 L231,550 L231,552 L217,552 L217,550 Z M237,550 L245,550 L245,552 L237,552 L237,550 Z M352,550 L356,550 L356,552 L352,552 L352,550 Z M362,550 L482,550 L482,552 L362,552 L362,550 Z M491,550 L551,550 L551,552 L491,552 L491,550 Z M560,550 L568,550 L568,552 L560,552 L560,550 Z M581,550 L594,550 L594,552 L581,552 L581,550 Z M571,550 L575,550 L575,552 L571,552 L571,550 Z M599,550 L689,550 L689,552 L599,552 L599,550 Z"/>
    <path fill="url(#masthead-lines-b)" d="M0,524 L120,524 L120,526 L0,526 L0,524 Z M183,524 L323,524 L323,526 L183,526 L183,524 Z M559,524 L579,524 L579,526 L559,526 L559,524 Z M588,524 L648,524 L648,526 L588,526 L588,524 Z M663,524 L753,524 L753,526 L663,526 L663,524 Z M135,524 L151,524 L151,526 L135,526 L135,524 Z M330,524 L390,524 L390,526 L330,526 L330,524 Z M462,524 L552,524 L552,526 L462,526 L462,524 Z M399,524 L429,524 L429,526 L399,526 L399,524 Z M160,524 L168,524 L168,526 L160,526 L160,524 Z M439,524 L447,524 L447,526 L439,526 L439,524 Z M171,524 L173,524 L173,526 L171,526 L171,524 Z M450,524 L452,524 L452,526 L450,526 L450,524 Z" opacity=".361"/>
    <path fill="url(#masthead-lines-c)" d="M0,496 L41,496 L41,500 L0,500 L0,496 Z M550,496 L582,496 L582,500 L550,500 L550,496 Z M596,496 L638,496 L638,500 L596,500 L596,496 Z M62,496 L192,496 L192,500 L62,500 L62,496 Z M206,496 L214,496 L214,500 L206,500 L206,496 Z M385,496 L389,496 L389,500 L385,500 L385,496 Z M528,496 L536,496 L536,500 L528,500 L528,496 Z M223,496 L243,496 L243,500 L223,500 L223,496 Z M652,496 L672,496 L672,500 L652,500 L652,496 Z M686,496 L766,496 L766,500 L686,500 L686,496 Z M252,496 L322,496 L322,500 L252,500 L252,496 Z M336,496 L376,496 L376,500 L336,500 L336,496 Z M399,496 L519,496 L519,500 L399,500 L399,496 Z"/>
    <path fill="url(#masthead-lines-d)" d="M0,470 L41,470 L41,472 L0,472 L0,470 Z M52,470 L69,470 L69,472 L52,472 L52,470 Z M75,470 L85,470 L85,472 L75,472 L75,470 Z M256,470 L346,470 L346,472 L256,472 L256,470 Z M91,470 L206,470 L206,472 L91,472 L91,470 Z M217,470 L231,470 L231,472 L217,472 L217,470 Z M237,470 L245,470 L245,472 L237,472 L237,470 Z M352,470 L356,470 L356,472 L352,472 L352,470 Z M362,470 L482,470 L482,472 L362,472 L362,470 Z M491,470 L551,470 L551,472 L491,472 L491,470 Z M560,470 L568,470 L568,472 L560,472 L560,470 Z M581,470 L594,470 L594,472 L581,472 L581,470 Z M571,470 L575,470 L575,472 L571,472 L571,470 Z M599,470 L689,470 L689,472 L599,472 L599,470 Z"/>
    <path fill="url(#masthead-lines-e)" d="M0,438 L12,438 L12,446 L0,446 L0,438 Z M23,438 L123,438 L123,446 L23,446 L23,438 Z M645,438 L765,438 L765,446 L645,446 L645,438 Z M137,438 L169,438 L169,446 L137,446 L137,438 Z M602,438 L634,438 L634,446 L602,446 L602,438 Z M180,438 L188,438 L188,446 L180,446 L180,438 Z M442,438 L450,438 L450,446 L442,446 L442,438 Z M320,438 L323,438 L323,446 L320,446 L320,438 Z M327,438 L330,438 L330,446 L327,446 L327,438 Z M588,438 L591,438 L591,446 L588,446 L588,438 Z M195,438 L315,438 L315,446 L195,446 L195,438 Z M457,438 L577,438 L577,446 L457,446 L457,438 Z M336,438 L396,438 L396,446 L336,446 L336,438 Z M407,438 L431,438 L431,446 L407,446 L407,438 Z" opacity=".777"/>
    <path fill="url(#masthead-lines-f)" d="M0,400 L41,400 L41,414 L0,414 L0,400 Z M550,400 L582,400 L582,414 L550,414 L550,400 Z M596,400 L638,400 L638,414 L596,414 L596,400 Z M62,400 L192,400 L192,414 L62,414 L62,400 Z M206,400 L214,400 L214,414 L206,414 L206,400 Z M385,400 L389,400 L389,414 L385,414 L385,400 Z M528,400 L536,400 L536,414 L528,414 L528,400 Z M223,400 L243,400 L243,414 L223,414 L223,400 Z M652,400 L672,400 L672,414 L652,414 L652,400 Z M686,400 L766,400 L766,414 L686,414 L686,400 Z M252,400 L322,400 L322,414 L252,414 L252,400 Z M336,400 L376,400 L376,414 L336,414 L336,400 Z M399,400 L519,400 L519,414 L399,414 L399,400 Z"/>
    <path fill="url(#masthead-lines-g)" d="M0,348 L41,348 L41,350 L0,350 L0,348 Z M52,348 L69,348 L69,350 L52,350 L52,348 Z M75,348 L85,348 L85,350 L75,350 L75,348 Z M256,348 L346,348 L346,350 L256,350 L256,348 Z M91,348 L206,348 L206,350 L91,350 L91,348 Z M217,348 L231,348 L231,350 L217,350 L217,348 Z M237,348 L245,348 L245,350 L237,350 L237,348 Z M352,348 L356,348 L356,350 L352,350 L352,348 Z M362,348 L482,348 L482,350 L362,350 L362,348 Z M491,348 L551,348 L551,350 L491,350 L491,348 Z M560,348 L568,348 L568,350 L560,350 L560,348 Z M581,348 L594,348 L594,350 L581,350 L581,348 Z M571,348 L575,348 L575,350 L571,350 L571,348 Z M599,348 L689,348 L689,350 L599,350 L599,348 Z" opacity=".538"/>
    <path fill="url(#masthead-lines-h)" d="M0,320 L41,320 L41,324 L0,324 L0,320 Z M550,320 L582,320 L582,324 L550,324 L550,320 Z M596,320 L638,320 L638,324 L596,324 L596,320 Z M62,320 L192,320 L192,324 L62,324 L62,320 Z M206,320 L214,320 L214,324 L206,324 L206,320 Z M385,320 L389,320 L389,324 L385,324 L385,320 Z M528,320 L536,320 L536,324 L528,324 L528,320 Z M223,320 L243,320 L243,324 L223,324 L223,320 Z M652,320 L672,320 L672,324 L652,324 L652,320 Z M686,320 L766,320 L766,324 L686,324 L686,320 Z M252,320 L322,320 L322,324 L252,324 L252,320 Z M336,320 L376,320 L376,324 L336,324 L336,320 Z M399,320 L519,320 L519,324 L399,324 L399,320 Z" opacity=".409"/>
    <path fill="url(#masthead-lines-i)" d="M0,288 L12,288 L12,296 L0,296 L0,288 Z M23,288 L123,288 L123,296 L23,296 L23,288 Z M645,288 L765,288 L765,296 L645,296 L645,288 Z M137,288 L169,288 L169,296 L137,296 L137,288 Z M602,288 L634,288 L634,296 L602,296 L602,288 Z M180,288 L188,288 L188,296 L180,296 L180,288 Z M442,288 L450,288 L450,296 L442,296 L442,288 Z M320,288 L323,288 L323,296 L320,296 L320,288 Z M327,288 L330,288 L330,296 L327,296 L327,288 Z M588,288 L591,288 L591,296 L588,296 L588,288 Z M195,288 L315,288 L315,296 L195,296 L195,288 Z M457,288 L577,288 L577,296 L457,296 L457,288 Z M336,288 L396,288 L396,296 L336,296 L336,288 Z M407,288 L431,288 L431,296 L407,296 L407,288 Z" opacity=".612"/>
    <path fill="url(#masthead-lines-j)" d="M0,262 L41,262 L41,264 L0,264 L0,262 Z M52,262 L69,262 L69,264 L52,264 L52,262 Z M75,262 L85,262 L85,264 L75,264 L75,262 Z M256,262 L346,262 L346,264 L256,264 L256,262 Z M91,262 L206,262 L206,264 L91,264 L91,262 Z M217,262 L231,262 L231,264 L217,264 L217,262 Z M237,262 L245,262 L245,264 L237,264 L237,262 Z M352,262 L356,262 L356,264 L352,264 L352,262 Z M362,262 L482,262 L482,264 L362,264 L362,262 Z M491,262 L551,262 L551,264 L491,264 L491,262 Z M560,262 L568,262 L568,264 L560,264 L560,262 Z M581,262 L594,262 L594,264 L581,264 L581,262 Z M571,262 L575,262 L575,264 L571,264 L571,262 Z M599,262 L689,262 L689,264 L599,264 L599,262 Z" opacity=".659"/>
    <path fill="url(#masthead-lines-k)" d="M0,236 L120,236 L120,238 L0,238 L0,236 Z M183,236 L323,236 L323,238 L183,238 L183,236 Z M559,236 L579,236 L579,238 L559,238 L559,236 Z M588,236 L648,236 L648,238 L588,238 L588,236 Z M663,236 L753,236 L753,238 L663,238 L663,236 Z M135,236 L151,236 L151,238 L135,238 L135,236 Z M330,236 L390,236 L390,238 L330,238 L330,236 Z M462,236 L552,236 L552,238 L462,238 L462,236 Z M399,236 L429,236 L429,238 L399,238 L399,236 Z M160,236 L168,236 L168,238 L160,238 L160,236 Z M439,236 L447,236 L447,238 L439,238 L439,236 Z M171,236 L173,236 L173,238 L171,238 L171,236 Z M450,236 L452,236 L452,238 L450,238 L450,236 Z" opacity=".545"/>
    <path fill="url(#masthead-lines-l)" d="M0,208 L41,208 L41,212 L0,212 L0,208 Z M550,208 L582,208 L582,212 L550,212 L550,208 Z M596,208 L638,208 L638,212 L596,212 L596,208 Z M62,208 L192,208 L192,212 L62,212 L62,208 Z M206,208 L214,208 L214,212 L206,212 L206,208 Z M385,208 L389,208 L389,212 L385,212 L385,208 Z M528,208 L536,208 L536,212 L528,212 L528,208 Z M223,208 L243,208 L243,212 L223,212 L223,208 Z M652,208 L672,208 L672,212 L652,212 L652,208 Z M686,208 L766,208 L766,212 L686,212 L686,208 Z M252,208 L322,208 L322,212 L252,212 L252,208 Z M336,208 L376,208 L376,212 L336,212 L336,208 Z M399,208 L519,208 L519,212 L399,212 L399,208 Z" opacity=".216"/>
    <path fill="url(#masthead-lines-m)" d="M0,176 L12,176 L12,184 L0,184 L0,176 Z M23,176 L123,176 L123,184 L23,184 L23,176 Z M645,176 L765,176 L765,184 L645,184 L645,176 Z M137,176 L169,176 L169,184 L137,184 L137,176 Z M602,176 L634,176 L634,184 L602,184 L602,176 Z M180,176 L188,176 L188,184 L180,184 L180,176 Z M442,176 L450,176 L450,184 L442,184 L442,176 Z M320,176 L323,176 L323,184 L320,184 L320,176 Z M327,176 L330,176 L330,184 L327,184 L327,176 Z M588,176 L591,176 L591,184 L588,184 L588,176 Z M195,176 L315,176 L315,184 L195,184 L195,176 Z M457,176 L577,176 L577,184 L457,184 L457,176 Z M336,176 L396,176 L396,184 L336,184 L336,176 Z M407,176 L431,176 L431,184 L407,184 L407,176 Z" opacity=".321"/>
    <path fill="url(#masthead-lines-n)" d="M0,150 L41,150 L41,152 L0,152 L0,150 Z M52,150 L69,150 L69,152 L52,152 L52,150 Z M75,150 L85,150 L85,152 L75,152 L75,150 Z M256,150 L346,150 L346,152 L256,152 L256,150 Z M91,150 L206,150 L206,152 L91,152 L91,150 Z M217,150 L231,150 L231,152 L217,152 L217,150 Z M237,150 L245,150 L245,152 L237,152 L237,150 Z M352,150 L356,150 L356,152 L352,152 L352,150 Z M362,150 L482,150 L482,152 L362,152 L362,150 Z M491,150 L551,150 L551,152 L491,152 L491,150 Z M560,150 L568,150 L568,152 L560,152 L560,150 Z M581,150 L594,150 L594,152 L581,152 L581,150 Z M571,150 L575,150 L575,152 L571,152 L571,150 Z M599,150 L689,150 L689,152 L599,152 L599,150 Z" opacity=".388"/>
    <path fill="url(#masthead-lines-o)" d="M0,112 L41,112 L41,126 L0,126 L0,112 Z M550,112 L582,112 L582,126 L550,126 L550,112 Z M596,112 L638,112 L638,126 L596,126 L596,112 Z M62,112 L192,112 L192,126 L62,126 L62,112 Z M206,112 L214,112 L214,126 L206,126 L206,112 Z M385,112 L389,112 L389,126 L385,126 L385,112 Z M528,112 L536,112 L536,126 L528,126 L528,112 Z M223,112 L243,112 L243,126 L223,126 L223,112 Z M652,112 L672,112 L672,126 L652,126 L652,112 Z M686,112 L766,112 L766,126 L686,126 L686,112 Z M252,112 L322,112 L322,126 L252,126 L252,112 Z M336,112 L376,112 L376,126 L336,126 L336,112 Z M399,112 L519,112 L519,126 L399,126 L399,112 Z" opacity=".378"/>
    <path fill="url(#masthead-lines-p)" d="M0,86 L120,86 L120,88 L0,88 L0,86 Z M183,86 L323,86 L323,88 L183,88 L183,86 Z M559,86 L579,86 L579,88 L559,88 L559,86 Z M588,86 L648,86 L648,88 L588,88 L588,86 Z M663,86 L753,86 L753,88 L663,88 L663,86 Z M135,86 L151,86 L151,88 L135,88 L135,86 Z M330,86 L390,86 L390,88 L330,88 L330,86 Z M462,86 L552,86 L552,88 L462,88 L462,86 Z M399,86 L429,86 L429,88 L399,88 L399,86 Z M160,86 L168,86 L168,88 L160,88 L160,86 Z M439,86 L447,86 L447,88 L439,88 L439,86 Z M171,86 L173,86 L173,88 L171,88 L171,86 Z M450,86 L452,86 L452,88 L450,88 L450,86 Z" opacity=".448"/>
    <path fill="url(#masthead-lines-q)" d="M0,54 L12,54 L12,62 L0,62 L0,54 Z M645,54 L765,54 L765,62 L645,62 L645,54 Z M137,54 L169,54 L169,62 L137,62 L137,54 Z M602,54 L634,54 L634,62 L602,62 L602,54 Z M180,54 L188,54 L188,62 L180,62 L180,54 Z M442,54 L450,54 L450,62 L442,62 L442,54 Z M320,54 L323,54 L323,62 L320,62 L320,54 Z M327,54 L330,54 L330,62 L327,62 L327,54 Z M588,54 L591,54 L591,62 L588,62 L588,54 Z M195,54 L315,54 L315,62 L195,62 L195,54 Z M457,54 L577,54 L577,62 L457,62 L457,54 Z M336,54 L396,54 L396,62 L336,62 L336,54 Z M407,54 L431,54 L431,62 L407,62 L407,54 Z" opacity=".377"/>
    <path fill="url(#masthead-lines-r)" d="M0,26 L41,26 L41,30 L0,30 L0,26 Z M550,26 L582,26 L582,30 L550,30 L550,26 Z M596,26 L638,26 L638,30 L596,30 L596,26 Z M62,26 L192,26 L192,30 L62,30 L62,26 Z M206,26 L214,26 L214,30 L206,30 L206,26 Z M385,26 L389,26 L389,30 L385,30 L385,26 Z M528,26 L536,26 L536,30 L528,30 L528,26 Z M223,26 L243,26 L243,30 L223,30 L223,26 Z M652,26 L672,26 L672,30 L652,30 L652,26 Z M686,26 L766,26 L766,30 L686,30 L686,26 Z M252,26 L322,26 L322,30 L252,30 L252,26 Z M336,26 L376,26 L376,30 L336,30 L336,26 Z M399,26 L519,26 L519,30 L399,30 L399,26 Z" opacity=".429"/>
    <path fill="url(#masthead-lines-s)" d="M0,0 L41,0 L41,2 L0,2 L0,0 Z M52,0 L69,0 L69,2 L52,2 L52,0 Z M75,0 L85,0 L85,2 L75,2 L75,0 Z M256,0 L346,0 L346,2 L256,2 L256,0 Z M91,0 L206,0 L206,2 L91,2 L91,0 Z M217,0 L231,0 L231,2 L217,2 L217,0 Z M237,0 L245,0 L245,2 L237,2 L237,0 Z M352,0 L356,0 L356,2 L352,2 L352,0 Z M362,0 L482,0 L482,2 L362,2 L362,0 Z M491,0 L551,0 L551,2 L491,2 L491,0 Z M560,0 L568,0 L568,2 L560,2 L560,0 Z M581,0 L594,0 L594,2 L581,2 L581,0 Z M571,0 L575,0 L575,2 L571,2 L571,0 Z M599,0 L689,0 L689,2 L599,2 L599,0 Z" opacity=".262"/>
  </g>
</svg>
